<svg xmlns="http://www.w3.org/2000/svg" viewBox="0 0 960 1080"><title>Workspace illustration</title><defs><linearGradient id="bg" x1="0" y1="0" x2="1" y2="1"><stop offset="0" stop-color="#dbeafe"/><stop offset="1" stop-color="#ede9fe"/></linearGradient></defs><rect width="960" height="1080" fill="url(#bg)"/><rect x="150" y="300" width="660" height="420" rx="24" fill="#1e293b"/><rect x="180" y="330" width="600" height="340" rx="8" fill="#0f172a"/><rect x="215" y="370" width="220" height="18" rx="9" fill="#60a5fa"/><rect x="215" y="410" width="420" height="12" rx="6" fill="#475569"/><rect x="215" y="440" width="360" height="12" rx="6" fill="#475569"/><rect x="215" y="470" width="400" height="12" rx="6" fill="#475569"/><rect x="215" y="520" width="160" height="90" rx="10" fill="#a78bfa"/><rect x="395" y="520" width="160" height="90" rx="10" fill="#34d399"/><rect x="575" y="520" width="160" height="90" rx="10" fill="#fbbf24"/><rect x="420" y="720" width="120" height="70" fill="#334155"/><rect x="330" y="785" width="300" height="24" rx="12" fill="#334155"/><circle cx="760" cy="230" r="70" fill="#fde68a"/></svg>
